<?xml version="1.0" standalone="no"?>
<!DOCTYPE svg PUBLIC "-//W3C//DTD SVG 20010904//EN"
 "http://www.w3.org/TR/2001/REC-SVG-20010904/DTD/svg10.dtd">
<svg version="1.0" xmlns="http://www.w3.org/2000/svg"
 width="128.000000pt" height="128.000000pt" viewBox="0 0 128.000000 128.000000"
 preserveAspectRatio="xMidYMid meet">
<metadata>
Created by potrace 1.14, written by Peter Selinger 2001-2017
</metadata>
<g transform="translate(0.000000,128.000000) scale(0.100000,-0.100000)"
fill="#000000" stroke="none">
<path d="M815 1186 c-37 -17 -70 -52 -84 -89 -19 -49 -15 -57 29 -57 29 0 40
4 40 15 0 27 47 65 80 65 19 0 40 -9 55 -25 16 -15 25 -36 25 -55 0 -19 -9
-40 -25 -55 l-24 -25 -456 0 -455 0 0 -40 0 -41 469 3 c456 3 470 4 497 24 53
39 69 71 69 134 0 63 -16 95 -67 133 -34 25 -113 32 -153 13z"/>
<path d="M80 760 l0 -40 40 0 40 0 0 40 0 40 -40 0 -40 0 0 -40z"/>
<path d="M240 760 l0 -40 200 0 200 0 0 40 0 40 -200 0 -200 0 0 -40z"/>
<path d="M720 761 l0 -41 231 -2 c208 -3 233 -5 243 -20 16 -26 -4 -52 -43
-56 -29 -3 -31 -6 -31 -44 l0 -41 46 6 c69 7 109 51 109 117 0 43 -5 54 -33
82 l-32 33 -245 3 -245 3 0 -40z"/>
<path d="M0 600 l0 -40 471 -2 c437 -3 473 -4 483 -20 16 -26 -4 -52 -43 -56
-29 -3 -31 -6 -31 -44 l0 -41 46 6 c69 7 109 50 109 118 0 46 -4 54 -37 85
l-38 34 -480 0 -480 0 0 -40z"/>
<path d="M0 440 l0 -40 40 0 40 0 0 40 0 40 -40 0 -40 0 0 -40z"/>
<path d="M160 440 l0 -40 255 0 256 0 24 -25 c50 -49 15 -135 -55 -135 -33 0
-80 38 -80 65 0 11 -11 15 -41 15 -41 0 -41 0 -35 -32 7 -39 31 -74 70 -102
39 -29 133 -29 172 0 53 39 69 71 69 134 0 66 -18 99 -75 138 -32 21 -40 22
-296 22 l-264 0 0 -40z"/>
</g>
</svg>
